<svg xmlns="http://www.w3.org/2000/svg" viewBox="0 0 100 100">
  <path fill="#FF9900" d="M50 5C25.1 5 5 25.1 5 50s20.1 45 45 45 45-20.1 45-45S74.9 5 50 5zm0 80c-19.3 0-35-15.7-35-35s15.7-35 35-35 35 15.7 35 35-15.7 35-35 35z"/>
  <path fill="#232F3E" d="M30 45c0-2.8 2.2-5 5-5h30c2.8 0 5 2.2 5 5v15c0 2.8-2.2 5-5 5H35c-2.8 0-5-2.2-5-5V45z"/>
  <path fill="#FF9900" d="M38 50h24v2H38zm0 5h20v2H38z"/>
  <path fill="#FF9900" d="M74 62c-8 5-19.5 8-29.5 8-14 0-26.5-5-36-13.5-.8-.7-.1-1.6.8-1.1 10.3 6 23 9.6 36.2 9.6 8.9 0 18.6-1.8 27.5-5.6 1.4-.6 2.5 1 1 2.6z"/>
  <path fill="#FF9900" d="M77 58.5c-1-1.3-6.8-.6-9.4-.3-.8.1-.9-.6-.2-1.1 4.6-3.2 12.2-2.3 13-1.2.9 1.1-.2 8.8-4.5 12.5-.7.6-1.3.3-1-.5 1-2.4 3.1-8.1 2.1-9.4z"/>
</svg>
